HIERARCHY
ROOT Torso
{
	OFFSET 0.000000 0.000000 0.000000
	CHANNELS 6 Xposition Yposition Zposition Xrotation Yrotation Zrotation 
	JOINT LHip
	{
		OFFSET 0.000000 0.000000 0.000000
		CHANNELS 3 Xrotation Yrotation Zrotation
		JOINT LThigh
		{
			OFFSET 0.055000 -0.055000 -0.010000
			CHANNELS 3 Xrotation Yrotation Zrotation
			JOINT LLeg
			{
				OFFSET 0.000000 -0.160000 0.015000
				CHANNELS 3 Xrotation Yrotation Zrotation
				JOINT LFoot
				{
					OFFSET 0.000000 -0.160000 -0.010000
					CHANNELS 3 Xrotation Yrotation Zrotation
					JOINT LToes
					{
						OFFSET 0.000000 0.000000 0.090000
						CHANNELS 3 Xrotation Yrotation Zrotation
						End Site
						{
							OFFSET 0.000000 0.000000 0.000000
						}
					}
				}
			}
		}
	}
	JOINT RHip
	{
		OFFSET 0.000000 0.000000 0.000000
		CHANNELS 3 Xrotation Yrotation Zrotation
		JOINT RThigh
		{
			OFFSET -0.055000 -0.055000 -0.010000
			CHANNELS 3 Xrotation Yrotation Zrotation
			JOINT RLeg
			{
				OFFSET 0.000000 -0.160000 0.015000
				CHANNELS 3 Xrotation Yrotation Zrotation
				JOINT RFoot
				{
					OFFSET 0.000000 -0.160000 -0.010000
					CHANNELS 3 Xrotation Yrotation Zrotation
					JOINT RToes
					{
						OFFSET 0.000000 0.000000 0.090000
						CHANNELS 3 Xrotation Yrotation Zrotation
						End Site
						{
							OFFSET 0.000000 0.000000 0.000000
						}
					}
				}
			}
		}
	}
	JOINT Neck
	{
		OFFSET 0.000000 0.135000 0.000000
		CHANNELS 3 Xrotation Yrotation Zrotation
		JOINT Head
		{
			OFFSET 0.000000 0.075000 0.000000
			CHANNELS 3 Xrotation Yrotation Zrotation
			End Site
			{
				OFFSET 0.000000 0.000000 0.000000
			}
		}
	}
	JOINT LUpperarm
	{
		OFFSET 0.098000 0.150000 0.000000
		CHANNELS 3 Xrotation Yrotation Zrotation
		JOINT LLowerarm
		{
			OFFSET 0.000000 0.009000 0.090000
			CHANNELS 3 Xrotation Yrotation Zrotation
			JOINT LHand
			{
				OFFSET 0.000000 0.000000 0.105000
				CHANNELS 3 Xrotation Yrotation Zrotation
				End Site
				{
					OFFSET 0.000000 0.000000 0.000000
				}
			}
		}
	}
	JOINT RUpperarm
	{
		OFFSET -0.098000 0.150000 0.000000
		CHANNELS 3 Xrotation Yrotation Zrotation
		JOINT RLowerarm
		{
			OFFSET 0.000000 0.009000 0.090000
			CHANNELS 3 Xrotation Yrotation Zrotation
			JOINT RHand
			{
				OFFSET 0.000000 0.000000 0.105000
				CHANNELS 3 Xrotation Yrotation Zrotation
				End Site
				{
					OFFSET 0.000000 0.000000 0.000000
				}
			}
		}
	}
}
MOTION
Frames: 6
Frame Time: 0.040000
-0.003760 0.419157 0.429519 176.154085 5.293444 175.836061 -4.129295 -1.592294 7.019107 -5.941250 1.943421 -8.857294 24.826295 8.477883 3.776657 9.270087 -8.043931 4.826603 -13.201993 -4.751798 -0.550194 -7.369015 2.599030 -5.441665 -11.502362 1.282943 19.852845 32.200215 -12.485739 -4.409760 6.397801 2.170927 -0.908463 -6.500097 2.359399 0.133995 -3.224110 -0.777750 2.401081 -5.350470 3.736022 -2.393575 72.293709 7.927765 -107.830332 3.844976 0.277237 11.092410 -9.957253 1.668014 1.457456 74.195282 -0.702089 115.823081 -0.717045 -10.114641 -7.751830 5.518407 -2.419784 -2.123387 
-0.003194 0.418630 0.429062 176.238799 5.199728 175.845339 -4.046288 -1.636390 7.075316 -6.318654 2.082271 -8.762110 25.689059 8.791287 3.669579 9.141227 -8.487322 4.982810 -12.830690 -4.621007 -0.519820 -7.496032 2.576685 -5.365415 -10.292810 1.476127 20.048405 31.046815 -12.080450 -4.680110 5.249994 2.149879 -0.869353 -6.132096 2.226502 0.119250 -3.238988 -0.711468 2.342061 -5.360454 3.673134 -2.329941 72.384775 8.030212 -108.128289 3.938388 0.146259 11.431500 -9.982720 1.680411 1.420073 74.371199 -0.539453 115.227352 -0.599928 -9.644306 -8.423203 4.476169 -2.480428 -2.122885 
-0.002643 0.418148 0.428617 176.318371 5.106947 175.869132 -3.964218 -1.680491 7.104546 -6.694647 2.242904 -8.648228 26.544136 9.097559 3.549680 9.054314 -8.912421 5.132818 -12.518293 -4.510799 -0.494989 -7.624857 2.549557 -5.316526 -9.188994 1.706450 20.250160 30.029211 -11.726972 -4.916291 3.956823 2.100986 -0.829777 -6.622596 2.403700 0.139085 -3.241830 -0.642822 2.289538 -5.365856 3.603742 -2.277244 72.461828 8.121134 -108.478797 4.035519 0.036383 11.758506 -9.932602 1.695340 1.379736 74.589602 -0.370470 114.367801 -0.395041 -9.110590 -9.200625 3.313667 -2.543587 -2.119047 
-0.002102 0.417641 0.428235 176.377463 5.012072 175.899824 -3.913510 -1.732892 7.144745 -7.082595 2.357866 -8.554565 27.406332 9.399940 3.419071 9.016481 -9.267267 5.257892 -12.188594 -4.394298 -0.469400 -7.762351 2.518526 -5.262796 -8.228168 1.954081 20.430150 29.146905 -11.426934 -5.111254 2.619089 2.035897 -0.798164 -7.835896 2.840799 0.194600 -3.252945 -0.572706 2.212275 -5.360687 3.531828 -2.216878 72.542393 8.223457 -108.902032 4.162084 -0.117192 12.170786 -9.893368 1.713463 1.338680 74.820246 -0.214743 113.450800 -0.134439 -8.541052 -10.036564 2.158167 -2.618996 -2.106326 
-0.001585 0.417044 0.427902 176.432718 4.901437 175.935178 -3.869284 -1.788525 7.179636 -7.518447 2.430329 -8.467198 28.329720 9.722091 3.274022 8.943949 -9.599419 5.365822 -11.893692 -4.289904 -0.447040 -7.882284 2.474051 -5.216675 -7.429867 2.210043 20.594084 28.378839 -11.167734 -5.266758 1.364177 1.899151 -0.762105 -9.322696 3.374297 0.275211 -3.240028 -0.499123 2.122525 -5.345244 3.466303 -2.146830 72.650763 8.313912 -109.228688 4.331356 -0.303436 12.652015 -9.925577 1.731930 1.299167 75.058501 -0.082702 112.544497 0.151792 -7.984196 -10.863355 1.132499 -2.692957 -2.092909 
-0.001083 0.416428 0.427610 176.469153 4.764795 175.978560 -3.847290 -1.851826 7.202382 -8.010341 2.489240 -8.363300 29.299953 10.060437 3.113100 8.828919 -9.910801 5.455758 -11.863092 -4.279002 -0.444755 -8.008095 2.425723 -5.191172 -6.763348 2.473672 20.757244 27.730156 -10.949801 -5.385406 0.219791 1.668279 -0.716115 -10.804592 3.903205 0.369221 -3.243600 -0.419917 2.052607 -5.334813 3.394038 -2.049822 72.746049 8.412441 -109.626226 4.505971 -0.519286 13.169712 -10.034468 1.756258 1.263478 75.362085 0.062377 111.388133 0.533709 -7.359962 -11.823844 -0.125359 -2.777764 -2.076602 
